<mxfile host="app.diagrams.net" modified="2025-09-11T00:00:00.000Z" agent="5.0" version="24.7.17" etag="wireframe" type="device">
  <diagram name="BLAW Course Overview" id="course-overview">
    <mxGraphModel dx="1422" dy="794" grid="1" gridSize="10" guides="1" tooltips="1" connect="1" arrows="1" fold="1" page="1" pageScale="1" pageWidth="1654" pageHeight="2339" math="0" shadow="0">
      <root>
        <mxCell id="0" />
        <mxCell id="1" parent="0" />
        
        <!-- Course Title Header -->
        <mxCell id="course-title" value="BUSINESS LAW COURSE OVERVIEW" style="rounded=1;whiteSpace=wrap;html=1;fontSize=24;fontStyle=1;fillColor=#dae8fc;strokeColor=#6c8ebf;strokeWidth=3;" vertex="1" parent="1">
          <mxGeometry x="527" y="40" width="600" height="80" as="geometry" />
        </mxCell>
        
        <!-- Timeline Bar -->
        <mxCell id="timeline-bar" value="COURSE TIMELINE: September - December" style="rounded=1;whiteSpace=wrap;html=1;fontSize=16;fillColor=#f8cecc;strokeColor=#b85450;" vertex="1" parent="1">
          <mxGeometry x="200" y="160" width="1254" height="40" as="geometry" />
        </mxCell>
        
        <!-- Unit 1: Intro to Legal & Ethical Analysis -->
        <mxCell id="unit1-container" value="" style="rounded=1;whiteSpace=wrap;html=1;fillColor=#fff2cc;strokeColor=#d6b656;strokeWidth=2;" vertex="1" parent="1">
          <mxGeometry x="80" y="240" width="280" height="200" as="geometry" />
        </mxCell>
        <mxCell id="unit1-title" value="UNIT 1&#xa;INTRO TO LEGAL &amp; ETHICAL ANALYSIS" style="text;html=1;strokeColor=none;fillColor=none;align=center;verticalAlign=middle;whiteSpace=wrap;rounded=0;fontSize=14;fontStyle=1;" vertex="1" parent="1">
          <mxGeometry x="90" y="250" width="260" height="40" as="geometry" />
        </mxCell>
        <mxCell id="unit1-content" value="• Chapter 2&#xa;• Date: 9/9&#xa;• Legal Procedure Video (12:05)&#xa;• Briefing Cases Video (13:29)&#xa;• Caldwell Case Analysis&#xa;• IRAC Method&#xa;• Quiz 1" style="text;html=1;strokeColor=none;fillColor=none;align=left;verticalAlign=top;whiteSpace=wrap;rounded=0;fontSize=11;" vertex="1" parent="1">
          <mxGeometry x="100" y="300" width="240" height="120" as="geometry" />
        </mxCell>
        
        <!-- Unit 2: Contracts -->
        <mxCell id="unit2-container" value="" style="rounded=1;whiteSpace=wrap;html=1;fillColor=#e1d5e7;strokeColor=#9673a6;strokeWidth=2;" vertex="1" parent="1">
          <mxGeometry x="400" y="240" width="280" height="200" as="geometry" />
        </mxCell>
        <mxCell id="unit2-title" value="UNIT 2&#xa;FUNDAMENTAL CONCEPTS: CONTRACTS" style="text;html=1;strokeColor=none;fillColor=none;align=center;verticalAlign=middle;whiteSpace=wrap;rounded=0;fontSize=14;fontStyle=1;" vertex="1" parent="1">
          <mxGeometry x="410" y="250" width="260" height="40" as="geometry" />
        </mxCell>
        <mxCell id="unit2-content" value="• Chapter 3&#xa;• Date: 9/14-16&#xa;• Contract Videos (9:44, 7:20)&#xa;• Steinberg, Ennix, Wellspan, Buras Cases&#xa;• River Park Hospital Case Study&#xa;• Non-compete Analysis&#xa;• Quizzes 2 &amp; 3" style="text;html=1;strokeColor=none;fillColor=none;align=left;verticalAlign=top;whiteSpace=wrap;rounded=0;fontSize=11;" vertex="1" parent="1">
          <mxGeometry x="420" y="300" width="240" height="120" as="geometry" />
        </mxCell>
        
        <!-- Unit 3: Torts & Medical Malpractice -->
        <mxCell id="unit3-container" value="" style="rounded=1;whiteSpace=wrap;html=1;fillColor=#d5e8d4;strokeColor=#82b366;strokeWidth=2;" vertex="1" parent="1">
          <mxGeometry x="720" y="240" width="280" height="200" as="geometry" />
        </mxCell>
        <mxCell id="unit3-title" value="UNIT 3&#xa;TORTS &amp; MEDICAL MALPRACTICE" style="text;html=1;strokeColor=none;fillColor=none;align=center;verticalAlign=middle;whiteSpace=wrap;rounded=0;fontSize=14;fontStyle=1;" vertex="1" parent="1">
          <mxGeometry x="730" y="250" width="260" height="40" as="geometry" />
        </mxCell>
        <mxCell id="unit3-content" value="• Chapter 4&#xa;• Date: 9/21-28&#xa;• Negligence Concepts&#xa;• Medical Malpractice Law&#xa;• Products Liability&#xa;• Case Analysis &amp; Briefing&#xa;• Ethical Considerations" style="text;html=1;strokeColor=none;fillColor=none;align=left;verticalAlign=top;whiteSpace=wrap;rounded=0;fontSize=11;" vertex="1" parent="1">
          <mxGeometry x="740" y="300" width="240" height="120" as="geometry" />
        </mxCell>
        
        <!-- Unit 4: Institutional Liability -->
        <mxCell id="unit4-container" value="" style="rounded=1;whiteSpace=wrap;html=1;fillColor=#fce5cd;strokeColor=#d79b00;strokeWidth=2;" vertex="1" parent="1">
          <mxGeometry x="1040" y="240" width="280" height="200" as="geometry" />
        </mxCell>
        <mxCell id="unit4-title" value="UNIT 4&#xa;INSTITUTIONAL LIABILITY" style="text;html=1;strokeColor=none;fillColor=none;align=center;verticalAlign=middle;whiteSpace=wrap;rounded=0;fontSize=14;fontStyle=1;" vertex="1" parent="1">
          <mxGeometry x="1050" y="250" width="260" height="40" as="geometry" />
        </mxCell>
        <mxCell id="unit4-content" value="• Chapter 5&#xa;• Date: 9/30-10/5&#xa;• Healthcare Institution Liability&#xa;• Corporate Responsibility&#xa;• Risk Management&#xa;• Agency Law&#xa;• Case Studies" style="text;html=1;strokeColor=none;fillColor=none;align=left;verticalAlign=top;whiteSpace=wrap;rounded=0;fontSize=11;" vertex="1" parent="1">
          <mxGeometry x="1060" y="300" width="240" height="120" as="geometry" />
        </mxCell>
        
        <!-- Exam 1 -->
        <mxCell id="exam1-container" value="" style="rounded=1;whiteSpace=wrap;html=1;fillColor=#f8cecc;strokeColor=#b85450;strokeWidth=3;" vertex="1" parent="1">
          <mxGeometry x="1360" y="240" width="200" height="200" as="geometry" />
        </mxCell>
        <mxCell id="exam1-title" value="REVIEW &amp; EXAM 1" style="text;html=1;strokeColor=none;fillColor=none;align=center;verticalAlign=middle;whiteSpace=wrap;rounded=0;fontSize=16;fontStyle=1;" vertex="1" parent="1">
          <mxGeometry x="1370" y="280" width="180" height="40" as="geometry" />
        </mxCell>
        <mxCell id="exam1-content" value="• Chapters 2-5&#xa;• Date: 10/12-14&#xa;• Comprehensive Review&#xa;• All Units 1-4&#xa;• Legal Analysis&#xa;• Case Briefing&#xa;• Contract Law&#xa;• Tort Law" style="text;html=1;strokeColor=none;fillColor=none;align=left;verticalAlign=top;whiteSpace=wrap;rounded=0;fontSize=11;" vertex="1" parent="1">
          <mxGeometry x="1380" y="330" width="160" height="100" as="geometry" />
        </mxCell>
        
        <!-- Unit 5: Topics in Healthcare Law & Ethics -->
        <mxCell id="unit5-container" value="" style="rounded=1;whiteSpace=wrap;html=1;fillColor=#e6d0de;strokeColor=#996185;strokeWidth=2;" vertex="1" parent="1">
          <mxGeometry x="240" y="480" width="400" height="200" as="geometry" />
        </mxCell>
        <mxCell id="unit5-title" value="UNIT 5&#xa;TOPICS IN HEALTHCARE LAW &amp; ETHICS" style="text;html=1;strokeColor=none;fillColor=none;align=center;verticalAlign=middle;whiteSpace=wrap;rounded=0;fontSize=14;fontStyle=1;" vertex="1" parent="1">
          <mxGeometry x="250" y="490" width="380" height="40" as="geometry" />
        </mxCell>
        <mxCell id="unit5-content" value="• Chapters 6-9&#xa;• Date: 10/19-11/4&#xa;• Advanced Healthcare Law Topics&#xa;• Ethical Frameworks&#xa;• Stakeholder Analysis&#xa;• Healthcare Policy&#xa;• Regulatory Compliance&#xa;• Professional Ethics" style="text;html=1;strokeColor=none;fillColor=none;align=left;verticalAlign=top;whiteSpace=wrap;rounded=0;fontSize=11;" vertex="1" parent="1">
          <mxGeometry x="260" y="540" width="360" height="120" as="geometry" />
        </mxCell>
        
        <!-- Exam 2 -->
        <mxCell id="exam2-container" value="" style="rounded=1;whiteSpace=wrap;html=1;fillColor=#f8cecc;strokeColor=#b85450;strokeWidth=3;" vertex="1" parent="1">
          <mxGeometry x="680" y="480" width="200" height="200" as="geometry" />
        </mxCell>
        <mxCell id="exam2-title" value="EXAM 2" style="text;html=1;strokeColor=none;fillColor=none;align=center;verticalAlign=middle;whiteSpace=wrap;rounded=0;fontSize=16;fontStyle=1;" vertex="1" parent="1">
          <mxGeometry x="690" y="520" width="180" height="40" as="geometry" />
        </mxCell>
        <mxCell id="exam2-content" value="• Date: 11/9&#xa;• Unit 5 Focus&#xa;• Healthcare Law&#xa;• Ethics Applications&#xa;• Advanced Topics&#xa;• Case Analysis" style="text;html=1;strokeColor=none;fillColor=none;align=left;verticalAlign=top;whiteSpace=wrap;rounded=0;fontSize=11;" vertex="1" parent="1">
          <mxGeometry x="700" y="570" width="160" height="100" as="geometry" />
        </mxCell>
        
        <!-- Unit 6: Group Projects -->
        <mxCell id="unit6-container" value="" style="rounded=1;whiteSpace=wrap;html=1;fillColor=#cdeb8b;strokeColor=#36393d;strokeWidth=2;" vertex="1" parent="1">
          <mxGeometry x="920" y="480" width="400" height="200" as="geometry" />
        </mxCell>
        <mxCell id="unit6-title" value="UNIT 6&#xa;GROUP PROJECTS 1 &amp; 2" style="text;html=1;strokeColor=none;fillColor=none;align=center;verticalAlign=middle;whiteSpace=wrap;rounded=0;fontSize=14;fontStyle=1;" vertex="1" parent="1">
          <mxGeometry x="930" y="490" width="380" height="40" as="geometry" />
        </mxCell>
        <mxCell id="unit6-content" value="• Date: 11/11-12/14&#xa;• Collaborative Learning&#xa;• Real-world Application&#xa;• Research &amp; Analysis&#xa;• Team-based Problem Solving&#xa;• Professional Presentation Skills&#xa;• Integration of Course Concepts" style="text;html=1;strokeColor=none;fillColor=none;align=left;verticalAlign=top;whiteSpace=wrap;rounded=0;fontSize=11;" vertex="1" parent="1">
          <mxGeometry x="940" y="540" width="360" height="120" as="geometry" />
        </mxCell>
        
        <!-- Final Presentation -->
        <mxCell id="final-presentation" value="" style="rounded=1;whiteSpace=wrap;html=1;fillColor=#a0522d;strokeColor=#6D1F00;strokeWidth=3;" vertex="1" parent="1">
          <mxGeometry x="480" y="720" width="400" height="120" as="geometry" />
        </mxCell>
        <mxCell id="final-title" value="GROUP PRESENTATION" style="text;html=1;strokeColor=none;fillColor=#ffffff;align=center;verticalAlign=middle;whiteSpace=wrap;rounded=0;fontSize=18;fontStyle=1;" vertex="1" parent="1">
          <mxGeometry x="490" y="740" width="380" height="30" as="geometry" />
        </mxCell>
        <mxCell id="final-content" value="Date: 12/17 | Time: 1:30PM-3:30PM&#xa;Culminating Course Experience" style="text;html=1;strokeColor=none;fillColor=#ffffff;align=center;verticalAlign=middle;whiteSpace=wrap;rounded=0;fontSize=12;" vertex="1" parent="1">
          <mxGeometry x="490" y="780" width="380" height="40" as="geometry" />
        </mxCell>
        
        <!-- Flow Arrows -->
        <mxCell id="arrow1" value="" style="endArrow=classic;html=1;rounded=0;strokeWidth=2;strokeColor=#666666;" edge="1" parent="1" source="unit1-container" target="unit2-container">
          <mxGeometry width="50" height="50" relative="1" as="geometry">
            <mxPoint x="360" y="340" as="sourcePoint" />
            <mxPoint x="400" y="340" as="targetPoint" />
          </mxGeometry>
        </mxCell>
        
        <mxCell id="arrow2" value="" style="endArrow=classic;html=1;rounded=0;strokeWidth=2;strokeColor=#666666;" edge="1" parent="1" source="unit2-container" target="unit3-container">
          <mxGeometry width="50" height="50" relative="1" as="geometry">
            <mxPoint x="680" y="340" as="sourcePoint" />
            <mxPoint x="720" y="340" as="targetPoint" />
          </mxGeometry>
        </mxCell>
        
        <mxCell id="arrow3" value="" style="endArrow=classic;html=1;rounded=0;strokeWidth=2;strokeColor=#666666;" edge="1" parent="1" source="unit3-container" target="unit4-container">
          <mxGeometry width="50" height="50" relative="1" as="geometry">
            <mxPoint x="1000" y="340" as="sourcePoint" />
            <mxPoint x="1040" y="340" as="targetPoint" />
          </mxGeometry>
        </mxCell>
        
        <mxCell id="arrow4" value="" style="endArrow=classic;html=1;rounded=0;strokeWidth=2;strokeColor=#666666;" edge="1" parent="1" source="unit4-container" target="exam1-container">
          <mxGeometry width="50" height="50" relative="1" as="geometry">
            <mxPoint x="1320" y="340" as="sourcePoint" />
            <mxPoint x="1360" y="340" as="targetPoint" />
          </mxGeometry>
        </mxCell>
        
        <mxCell id="arrow5" value="" style="endArrow=classic;html=1;rounded=0;strokeWidth=2;strokeColor=#666666;" edge="1" parent="1">
          <mxGeometry width="50" height="50" relative="1" as="geometry">
            <mxPoint x="1460" y="440" as="sourcePoint" />
            <mxPoint x="440" y="480" as="targetPoint" />
            <Array as="points">
              <mxPoint x="1460" y="460" />
              <mxPoint x="440" y="460" />
            </Array>
          </mxGeometry>
        </mxCell>
        
        <mxCell id="arrow6" value="" style="endArrow=classic;html=1;rounded=0;strokeWidth=2;strokeColor=#666666;" edge="1" parent="1" source="unit5-container" target="exam2-container">
          <mxGeometry width="50" height="50" relative="1" as="geometry">
            <mxPoint x="640" y="580" as="sourcePoint" />
            <mxPoint x="680" y="580" as="targetPoint" />
          </mxGeometry>
        </mxCell>
        
        <mxCell id="arrow7" value="" style="endArrow=classic;html=1;rounded=0;strokeWidth=2;strokeColor=#666666;" edge="1" parent="1" source="exam2-container" target="unit6-container">
          <mxGeometry width="50" height="50" relative="1" as="geometry">
            <mxPoint x="880" y="580" as="sourcePoint" />
            <mxPoint x="920" y="580" as="targetPoint" />
          </mxGeometry>
        </mxCell>
        
        <mxCell id="arrow8" value="" style="endArrow=classic;html=1;rounded=0;strokeWidth=2;strokeColor=#666666;" edge="1" parent="1" source="unit6-container" target="final-presentation">
          <mxGeometry width="50" height="50" relative="1" as="geometry">
            <mxPoint x="1120" y="680" as="sourcePoint" />
            <mxPoint x="680" y="720" as="targetPoint" />
            <Array as="points">
              <mxPoint x="1120" y="700" />
              <mxPoint x="680" y="700" />
            </Array>
          </mxGeometry>
        </mxCell>
        
        <!-- Key Learning Components Box -->
        <mxCell id="learning-components" value="" style="rounded=1;whiteSpace=wrap;html=1;fillColor=#f0f0f0;strokeColor=#666666;strokeWidth=2;" vertex="1" parent="1">
          <mxGeometry x="80" y="880" width="1240" height="160" as="geometry" />
        </mxCell>
        <mxCell id="learning-title" value="KEY LEARNING COMPONENTS THROUGHOUT COURSE" style="text;html=1;strokeColor=none;fillColor=none;align=center;verticalAlign=middle;whiteSpace=wrap;rounded=0;fontSize=16;fontStyle=1;" vertex="1" parent="1">
          <mxGeometry x="90" y="890" width="1220" height="30" as="geometry" />
        </mxCell>
        <mxCell id="learning-content" value="🎯 IRAC Legal Analysis Method   📚 Case Briefing &amp; Analysis   ⚖️ Ethical Stakeholder Approach   🏥 Healthcare Context Application&#xa;&#xa;📖 Reading Assignments: Chapters 2-9   📹 Educational Videos &amp; Lectures   💼 Real-world Case Studies   📝 Quizzes &amp; Assessments&#xa;&#xa;👥 Group Collaboration   🗣️ Class Discussions   📊 Business Implications Analysis   🎓 Professional Presentation Skills" style="text;html=1;strokeColor=none;fillColor=none;align=left;verticalAlign=top;whiteSpace=wrap;rounded=0;fontSize=12;" vertex="1" parent="1">
          <mxGeometry x="100" y="930" width="1200" height="100" as="geometry" />
        </mxCell>
        
      </root>
    </mxGraphModel>
  </diagram>
</mxfile>


